<?xml version="1.0" standalone="no"?>
<!DOCTYPE svg PUBLIC "-//W3C//DTD SVG 20010904//EN"
 "http://www.w3.org/TR/2001/REC-SVG-20010904/DTD/svg10.dtd">
<svg version="1.0" xmlns="http://www.w3.org/2000/svg"
 width="204.000000pt" height="204.000000pt" viewBox="0 0 204.000000 204.000000"
 preserveAspectRatio="xMidYMid meet">
<metadata>
Created by potrace 1.11, written by Peter Selinger 2001-2013
</metadata>
<g transform="translate(0.000000,204.000000) scale(0.100000,-0.100000)"
fill="#000000" stroke="none">
<path d="M894 1645 c-54 -36 -115 -74 -134 -85 -19 -11 -88 -55 -153 -98 -64
-42 -190 -124 -280 -182 -89 -57 -199 -128 -245 -158 l-83 -54 123 -85 c68
-48 142 -99 165 -115 23 -16 45 -33 48 -38 3 -4 -36 -39 -87 -77 l-92 -68 204
-5 c113 -3 211 -9 218 -13 19 -12 15 -40 -15 -96 -14 -28 -24 -53 -22 -56 3
-2 45 7 93 20 84 23 89 23 114 7 26 -16 158 -109 255 -180 l48 -34 -6 155 -6
156 43 11 c24 6 59 15 78 21 19 5 196 9 393 9 196 0 357 2 357 5 0 2 -10 28
-23 57 -48 107 -49 103 53 128 50 12 90 25 90 29 0 3 -67 56 -149 116 l-149
110 -117 287 -118 287 -121 -93 c-66 -51 -126 -95 -132 -99 -7 -4 -47 21 -90
54 l-79 61 -37 -79 -37 -78 -2 55 c-1 30 -2 85 -3 122 0 38 -1 68 -2 68 0 0
-45 -29 -100 -65z"/>
</g>
</svg>
